HIERARCHY
ROOT pelvis
{
  OFFSET 0 0 0
  CHANNELS 6 Xposition Yposition Zposition Zrotation Xrotation Yrotation
  JOINT pelvis_right_femur
  {
    OFFSET -11.43119 -3.542788 0.2090856
    CHANNELS 3 Zrotation Xrotation Yrotation
    JOINT right_femur_tibia
    {
      OFFSET -1.028693 -40.73281 5
      CHANNELS 3 Zrotation Xrotation Yrotation
      JOINT right_tibia_foot
      {
        OFFSET -0.5013517 -42.05707 -5
        CHANNELS 3 Zrotation Xrotation Yrotation
        End Site
        {
          OFFSET 0 -5 10
        }
      }
    }
  }
  JOINT pelvis_left_femur
  {
    OFFSET 11.43119 -3.542788 0.2090856
    CHANNELS 3 Zrotation Xrotation Yrotation
    JOINT left_femur_tibia
    {
      OFFSET 1.028693 -40.73281 5
      CHANNELS 3 Zrotation Xrotation Yrotation
      JOINT left_tibia_foot
      {
        OFFSET 0.3200228 -42.98253 -5
        CHANNELS 3 Zrotation Xrotation Yrotation
        End Site
        {
          OFFSET 0 -5 10
        }
      }
    }
  }
  JOINT pelvis_spine1
  {
    OFFSET 0 8.64413 -3.209807
    CHANNELS 3 Zrotation Xrotation Yrotation
    JOINT spine1
    {
      OFFSET 0 29.53957 -1.762685
      CHANNELS 3 Zrotation Xrotation Yrotation
      JOINT spine2
      {
        OFFSET 0 16.36153 -0.1422377
        CHANNELS 3 Zrotation Xrotation Yrotation
        JOINT neck
        {
          OFFSET 0 11.60093 5
          CHANNELS 3 Zrotation Xrotation Yrotation
          End Site
          {
            OFFSET 0 20 0
          }
        }
      }
      JOINT right_manubrium
      {
        OFFSET -4.671311 15.89868 4
        CHANNELS 3 Zrotation Xrotation Yrotation
        JOINT right_clavicle
        {
          OFFSET -13.601 1.573642 -2.74176
          CHANNELS 3 Zrotation Xrotation Yrotation
          JOINT right_humerus
          {
            OFFSET -0.06331682 -27.72702 2.252146
            CHANNELS 3 Zrotation Xrotation Yrotation
            JOINT right_radius
            {
              OFFSET -0.5696302 -23.92083 0.4042105
              CHANNELS 3 Zrotation Xrotation Yrotation
              End Site
              {
                OFFSET 0 -15 0
              }
            }
          }
        }
      }
      JOINT left_manubrium
      {
        OFFSET 4.671311 15.89868 4
        CHANNELS 3 Zrotation Xrotation Yrotation
        JOINT left_clavicle
        {
          OFFSET 13.601 1.573642 -2.74176
          CHANNELS 3 Zrotation Xrotation Yrotation
          JOINT left_humerus
          {
            OFFSET 0.000209614 -29.01858 1.101395
            CHANNELS 3 Zrotation Xrotation Yrotation
            JOINT left_radius
            {
              OFFSET -0.2288314 -24.59216 1.790347
              CHANNELS 3 Zrotation Xrotation Yrotation
              End Site
              {
                OFFSET 0 -15 0
              }
            }
          }
        }
      }
    }
  }
}
MOTION
Frames: 17
Frame Time: 0.0416666666667
0 48.26591 0 -5.22125 -20.91135 -1.83791 -49.11654 -59.24572 -49.12061 -180 86.3242 -180 5.316904 5.100729 -1.868638 67.33816 -51.95659 60.78537 -180 80.36032 -180 -4.64347 3.0798 -19.06037 0.269054 22.64543 0.6459369 8.309514 14.43707 -10.24812 -12.04122 12.26132 -0.8846555 11.36074 -30.40431 -11.45498 19.21995 -8.440268 23.82921 -64.06201 -28.04213 15.60676 0 -71.45669 0 2.199381 -13.75217 21.65859 -28.91841 -29.98736 -4.319524 48.3582 -26.16092 -29.30355 0 -74.02566 0 -16.85112 22.3531 -42.41818
0.03156003 48.2547 -0.07305414 -5.141989 -20.86307 -1.767478 -49.32193 -59.31395 -49.2385 -180 86.36576 -180 5.327332 5.139487 -1.895494 67.38695 -51.94773 61.06572 -180 80.41678 -180 -4.626453 3.140409 -19.10984 0.04184527 22.85676 0.6507337 9.088667 14.36321 -10.87711 -11.53446 12.59733 -2.273414 11.86559 -30.23338 -13.56096 19.92768 -10.12072 22.9145 -64.60529 -25.84327 12.1972 0 -71.43372 0 -0.6886824 -15.96695 19.67072 -28.83701 -30.29987 -3.736457 48.52839 -26.04895 -29.16903 0 -74.43173 0 -16.8402 22.20758 -42.32508
0.06836343 48.27406 -0.07783433 -5.085186 -20.76853 -1.686008 -49.48911 -59.36001 -49.29583 -180 86.40422 -180 5.325961 5.162487 -1.902638 67.4511 -51.91916 61.34226 -180 80.43992 -180 -4.618235 3.155645 -19.14302 -0.1175817 22.96946 0.4521957 9.852046 14.28508 -11.41567 -11.47566 12.88308 -3.079339 12.24203 -30.15883 -15.08886 21.20311 -12.91086 21.91646 -65.4764 -23.37357 7.403259 0 -70.26247 0 -4.282868 -17.92 17.06125 -28.92393 -30.59606 -3.062037 48.68054 -25.80617 -28.99813 0 -74.91532 0 -16.81642 22.03029 -42.23652
0.1422711 48.23763 -0.08251678 -5.051422 -20.55715 -1.724567 -49.81631 -59.62236 -49.51817 -180 86.40427 -180 5.335917 5.214327 -1.919757 67.73694 -51.95191 61.8393 -180 80.39323 -180 -4.646311 3.14092 -19.13 -0.1698305 23.1933 0.2335242 10.44961 13.87966 -11.76518 -11.67243 13.0629 -3.404789 12.51874 -30.12106 -16.04696 22.66786 -16.62338 21.28217 -66.60877 -20.79881 1.800189 0 -66.98349 0 -8.239451 -19.10268 13.82383 -29.10501 -30.82067 -2.408733 48.76649 -25.48882 -28.86165 0 -75.53541 0 -16.78528 21.82202 -42.15766
0.1945121 48.27997 -0.0009410914 -4.980838 -20.26665 -1.783225 -50.1799 -59.84021 -49.76938 -180 86.36114 -180 5.317332 5.240627 -1.871507 67.90658 -51.94358 62.17557 -180 80.31702 -180 -4.703572 3.061658 -19.0662 -0.1097136 23.2367 -0.05686318 10.76287 13.63355 -11.81743 -12.00602 13.15569 -3.468074 12.72453 -30.2217 -16.64293 24.01603 -20.68014 21.39524 -67.92931 -18.32331 -3.749615 0 -61.56661 0 -11.86046 -19.36163 10.29517 -29.39904 -30.96002 -1.934311 48.8644 -25.08101 -28.76606 0 -76.18538 0 -16.77485 21.58076 -42.08524
0.2373662 48.25881 0.09684923 -4.839434 -19.94852 -1.918661 -50.78026 -60.17982 -50.25464 -180 86.27598 -180 5.299579 5.265291 -1.796634 68.08357 -52.01926 62.53113 -180 80.23925 -180 -4.791426 2.959262 -18.92032 0.1112119 23.24473 -0.2219428 10.70405 13.37324 -11.67708 -12.4024 13.09114 -3.453976 12.82836 -30.39527 -17.0784 24.61862 -24.55258 22.10097 -69.5288 -16.11245 -8.428742 0 -54.53098 0 -14.39078 -18.74277 6.949682 -29.57557 -31.05746 -1.623046 49.0118 -24.71373 -28.73186 0 -76.83989 0 -16.78907 21.29352 -42.00735
0.2130281 48.24422 0.1608222 -4.600681 -19.62944 -2.056929 -51.53978 -60.52149 -50.88692 -180 86.1551 -180 5.256995 5.292291 -1.679405 68.10685 -52.13343 62.71221 -180 80.17832 -180 -4.895184 2.847267 -18.70165 0.497924 23.22835 -0.226314 10.30002 13.30894 -11.42211 -12.8012 12.83102 -3.449677 12.84719 -30.68333 -17.42407 24.16076 -27.68849 23.18947 -71.25828 -14.39997 -11.52236 0 -46.93559 0 -15.37753 -17.66805 4.238097 -29.58492 -31.1621 -1.536372 49.28785 -24.40683 -28.69842 0 -77.4376 0 -16.83821 20.95627 -41.92134
0.1825443 48.22815 0.208114 -4.281127 -19.3252 -2.240345 -52.46997 -60.86344 -51.67355 -180 86.03952 -180 5.204213 5.330397 -1.510459 67.96998 -52.28949 62.75765 -180 80.16669 -180 -5.007701 2.736242 -18.41576 0.9135783 23.13702 -0.1423614 9.694808 13.4232 -11.17631 -13.20065 12.44607 -3.422992 12.77766 -31.02737 -17.64722 22.936 -29.99597 24.37771 -72.81358 -13.21948 -13.15351 0 -39.63024 0 -15.01739 -16.52458 2.116749 -29.47517 -31.29475 -1.623274 49.66293 -24.14138 -28.61766 0 -77.92095 0 -16.89489 20.57338 -41.82023
0.1076594 48.2296 0.2213667 -3.86262 -18.96408 -2.433047 -53.55096 -61.25411 -52.61514 -180 85.95841 -180 5.14379 5.384347 -1.318187 67.78862 -52.44489 62.83919 -180 80.23387 -180 -5.136265 2.633469 -18.07939 1.321793 23.04933 0.04963484 9.02791 13.59652 -10.87426 -13.68414 11.91793 -3.259151 12.57969 -31.38672 -17.62697 21.41655 -31.55794 25.46622 -74.00524 -12.3189 -13.76076 0 -32.88008 0 -13.69116 -15.4417 0.3977351 -29.35911 -31.45982 -1.79985 50.03325 -23.9066 -28.48064 0 -78.34292 0 -16.94777 20.15552 -41.70796
0.009138264 48.24723 0.1949724 -3.389019 -18.59745 -2.621839 -54.69781 -61.66338 -53.60806 -180 85.89849 -180 5.068615 5.446157 -1.09636 67.55301 -52.58493 62.9432 -180 80.35117 -180 -5.27051 2.535703 -17.74598 1.57903 22.93963 0.3497609 8.471414 13.80706 -10.53485 -14.27483 11.31119 -2.819911 12.25369 -31.68637 -17.19545 20.02245 -32.57775 26.42229 -74.83236 -11.77533 -13.72928 0 -27.43692 0 -11.94461 -14.74234 -0.9515279 -29.32873 -31.61898 -2.088614 50.31708 -23.67758 -28.32461 0 -78.66804 0 -16.9836 19.71058 -41.59272
-0.103906 48.24188 0.1623425 -2.795952 -18.2308 -2.809001 -56.07904 -62.13704 -54.7285 -180 85.78212 -180 4.998027 5.51313 -0.8813239 67.28109 -52.67276 63.12577 -180 80.45663 -180 -5.406121 2.461387 -17.43548 1.582014 22.77525 0.7996956 8.077534 13.89527 -10.16379 -15.10427 10.65005 -1.998201 11.73962 -31.895 -16.27769 18.99378 -33.4167 27.19411 -75.52821 -11.54106 -13.54827 0 -23.61195 0 -10.4081 -14.56791 -2.122201 -29.36175 -31.69401 -2.442272 50.44864 -23.45125 -28.24705 0 -78.84446 0 -17.01882 19.27803 -41.46445
-0.289289 48.08324 0.1206066 -2.009923 -17.90605 -3.016484 -57.81153 -62.75288 -56.08637 -180 85.55304 -180 4.92895 5.550281 -0.6981853 67.07693 -52.6947 63.45379 -180 80.52094 -180 -5.539488 2.414635 -17.192 1.261233 22.60039 1.447619 7.805202 13.86466 -9.758603 -16.24986 9.896224 -0.9009066 10.99361 -32.07092 -15.05922 18.35427 -34.05682 27.69004 -76.04009 -11.35237 -13.36662 0 -20.97128 0 -9.214011 -14.67916 -3.275725 -29.33589 -31.74556 -2.79381 50.50829 -23.28953 -28.22676 0 -78.90679 0 -17.06041 18.85704 -41.3378
-0.3442885 48.05209 0.1355734 -1.455678 -17.63587 -3.115731 -59.22828 -63.08279 -57.17101 -180 85.39641 -180 4.865782 5.59268 -0.5343951 66.79671 -52.7512 63.65095 -180 80.58461 -180 -5.644419 2.375236 -16.98715 1.235986 22.41918 1.907963 7.640867 13.8722 -9.429259 -17.51736 9.133976 0.2300223 10.11715 -32.32187 -13.78549 18.08594 -34.56139 28.08298 -76.44645 -11.19404 -13.27714 0 -19.26184 0 -8.455112 -14.96889 -4.441905 -29.46382 -31.73736 -3.136681 50.45522 -23.1471 -28.30575 0 -78.84938 0 -17.10209 18.46167 -41.20887
-0.3978075 48.03744 0.1741991 -1.047532 -17.43099 -3.106932 -60.25918 -63.26008 -57.95431 -180 85.2483 -180 4.817996 5.59637 -0.4216817 66.56819 -52.82227 63.76903 -180 80.628 -180 -5.713009 2.346476 -16.85088 1.297826 22.2299 2.280993 7.539436 13.90385 -9.143963 -18.71185 8.431867 1.2223 9.209125 -32.59501 -12.63626 18.05173 -34.85353 28.45341 -76.75306 -11.10488 -13.17791 0 -18.46514 0 -8.02239 -15.43976 -5.528673 -29.65792 -31.71554 -3.46644 50.34611 -23.08338 -28.46953 0 -78.71945 0 -17.15951 18.09551 -41.08835
-0.4469564 48.03465 0.2158731 -0.7542647 -17.27934 -3.026124 -61.01959 -63.35946 -58.512 -180 85.10628 -180 4.789923 5.572046 -0.3700995 66.39055 -52.89954 63.87144 -180 80.66771 -180 -5.756648 2.332084 -16.77888 1.294283 22.03543 2.531489 7.524395 13.93559 -8.973204 -19.68507 7.850063 2.026111 8.372975 -32.82564 -11.64841 18.09475 -34.93585 28.65193 -76.95562 -11.01922 -13.04412 0 -18.43718 0 -7.875341 -16.03281 -6.531568 -29.8301 -31.69881 -3.698812 50.25371 -23.06153 -28.65541 0 -78.56403 0 -17.21554 17.75628 -40.98071
-0.4881269 48.04589 0.257395 -0.5685605 -17.13802 -2.904573 -61.48977 -63.43497 -58.82254 -180 85.00887 -180 4.782941 5.536665 -0.3859918 66.33197 -52.96794 64.0186 -180 80.70616 -180 -5.77165 2.330429 -16.76749 1.241377 21.81249 2.647831 7.519763 13.92903 -8.922647 -20.41975 7.35527 2.674682 7.650552 -33.00743 -10.78128 18.04366 -34.78788 28.59163 -77.12179 -10.94581 -12.81379 0 -19.15053 0 -7.890188 -16.72153 -7.435442 -29.96659 -31.68837 -3.79542 50.20282 -23.05303 -28.79679 0 -78.37467 0 -17.25869 17.45512 -40.87626
-0.5016728 48.06022 0.2921615 -0.4773316 -17.04084 -2.809663 -61.72359 -63.50538 -58.90364 -180 84.94886 -180 4.776534 5.508697 -0.4381772 66.33813 -52.99545 64.1624 -180 80.72163 -180 -5.775275 2.335884 -16.79907 1.150325 21.56807 2.623524 7.583488 13.92149 -8.957254 -20.94677 6.924792 3.246421 7.04317 -33.11916 -9.953997 17.9665 -34.36898 28.26877 -77.17014 -10.9804 -12.42926 0 -20.79201 0 -7.982606 -17.56236 -8.217724 -30.10519 -31.68696 -3.79332 50.18625 -23.01467 -28.86672 0 -78.16117 0 -17.27461 17.18391 -40.77796
